<svg width="80" height="24" viewBox="0 0 80 24" fill="none" xmlns="http://www.w3.org/2000/svg">
  <path d="M12 0C5.4 0 0 5.4 0 12s5.4 12 12 12 12-5.4 12-12S18.6 0 12 0zm5.5 17.3c-.2.3-.6.4-.9.2-2.5-1.5-5.7-1.9-9.4-1-.4.1-.8-.2-.9-.6-.1-.4.2-.8.6-.9 4.1-.9 7.7-.5 10.6 1.2.3.2.4.7.2 1-.1.1-.1.1-.2.1zm1.3-2.9c-.3.4-.8.5-1.2.2-2.8-1.7-7.1-2.2-10.4-1.2-.5.2-1-.1-1.2-.6-.2-.5.1-1 .6-1.2 3.8-1.1 8.6-.6 11.8 1.4.4.2.6.8.4 1.2v.2zm.1-3c-3.4-2-9-2.2-12.2-1.2-.6.2-1.2-.2-1.4-.8-.2-.6.2-1.2.8-1.4 3.7-1.1 10.1-.9 14 1.4.5.3.7.9.4 1.4-.3.5-.9.7-1.4.4-.1 0-.1-.1-.2-.1V11.4z" fill="#1ED760"/>
  <text x="28" y="16" font-family="system-ui, -apple-system, sans-serif" font-size="12" font-weight="600" fill="#9CA3AF">Spotify</text>
</svg>